<svg xmlns="http://www.w3.org/2000/svg" width="192" height="60" viewBox="0 0 192 60">
  <g id="Grupo_8834" data-name="Grupo 8834" transform="translate(-58.477 -307.984)">
    <path id="Caminho_1985" data-name="Caminho 1985" d="M105.633,324.485v3.042a1.523,1.523,0,0,1-3.045,0V318.5c0-3.081-4.814-3.122-4.814,0v5.99a1.524,1.524,0,0,1-3.045,0V314.375c0-3.081-4.814-3.122-4.814,0v3.76a1.523,1.523,0,0,1-3.044,0v-7.852c0-2.994-4.816-3.134-4.816,0v7.852a1.523,1.523,0,0,1-3.044,0v-3.76c0-3.071-4.816-3.125-4.816,0v9.4a1.523,1.523,0,0,1-3.044,0V318.5c0-3.084-4.814-3.118-4.814,0v19.118a1.523,1.523,0,0,1-3.045,0V324.485c0-2.983-4.814-3.118-4.814,0v27c0,3.083,4.814,3.124,4.814,0v-2.666a1.523,1.523,0,0,1,3.045,0v8.655c0,3.082,4.814,3.122,4.814,0V351.86a1.524,1.524,0,0,1,3.045,0v9.734c0,3.081,4.814,3.122,4.814,0v-3.383a1.523,1.523,0,0,1,3.044,0v7.475c0,2.994,4.815,3.134,4.815,0v-7.475a1.523,1.523,0,0,1,3.044,0v3.383c0,3.071,4.815,3.125,4.815,0v-9.022a1.523,1.523,0,0,1,3.044,0v4.9c0,3.084,4.814,3.118,4.814,0V339.109a1.524,1.524,0,0,1,3.045,0v12.375c0,2.983,4.814,3.118,4.814,0v-27C110.447,321.4,105.633,321.361,105.633,324.485Z" transform="translate(0)" fill="#f8f0e5"/>
    <path id="Caminho_1986" data-name="Caminho 1986" d="M122.521,370.645l13.179,7.609a3.355,3.355,0,0,1,0,5.811l-13.179,7.609a3.355,3.355,0,0,1-5.033-2.906V373.551A3.355,3.355,0,0,1,122.521,370.645Z" transform="translate(-40.958 -43.175)" fill="#102c57"/>
    <g id="Grupo_8833" data-name="Grupo 8833" transform="translate(122.71 329.558)">
      <path id="Caminho_1987" data-name="Caminho 1987" d="M278.118,389.254h-5.766l.2.2v6.091h-1.929V379.1h7.512c3.492,0,5.421,2.111,5.421,5.076C283.559,387.02,281.63,389.254,278.118,389.254Zm.02-8.324h-5.786l.2.2v6.091l-.2.2h5.766c2.355,0,3.451-1.381,3.451-3.249C281.569,382.229,280.473,380.929,278.138,380.929Z" transform="translate(-270.626 -378.919)" fill="#f8f0e5"/>
      <path id="Caminho_1988" data-name="Caminho 1988" d="M332.985,395.547H321.859V379.1h1.929V393.5l-.2.223h9.4Z" transform="translate(-306.185 -378.919)" fill="#f8f0e5"/>
      <path id="Caminho_1989" data-name="Caminho 1989" d="M376.724,395.547h-2.112l-1.746-3.959.1-.2h-8.994l.1.2-1.746,3.959h-2.112l7.228-16.445H369.5Zm-4.629-5.989-.2-.2-2.9-6.6-.487-1.645h-.041l-.508,1.645-2.9,6.6-.2.2Z" transform="translate(-332.809 -378.919)" fill="#f8f0e5"/>
      <path id="Caminho_1990" data-name="Caminho 1990" d="M425.181,379.1l-6.842,9.543v6.9H416.39v-6.9l-6.863-9.543h2.436l4.263,6.03,1.117,1.888h.041l1.1-1.888,4.284-6.03Z" transform="translate(-367.033 -378.919)" fill="#f8f0e5"/>
      <path id="Caminho_1991" data-name="Caminho 1991" d="M481.075,392.412a9.14,9.14,0,0,1-6.924,2.944c-5.786,0-8.811-3.431-8.811-8.344s3.147-8.507,8.832-8.507a8.6,8.6,0,0,1,6.883,2.883l-2.376,2.376a5.252,5.252,0,0,0-4.507-2.193c-3.736,0-5.32,2.315-5.32,5.441,0,3.025,1.482,5.258,5.3,5.258a5.517,5.517,0,0,0,4.588-2.172Z" transform="translate(-405.771 -378.504)" fill="#f8f0e5"/>
      <path id="Caminho_1992" data-name="Caminho 1992" d="M539.876,387.974c0,4.913-2.477,7.776-7.715,7.776-5.258,0-7.755-2.822-7.755-7.776V379.1h3.452v8.852c0,3.106,1.137,4.71,4.284,4.71,3.106,0,4.284-1.6,4.284-4.71V379.1h3.451Z" transform="translate(-446.766 -378.919)" fill="#f8f0e5"/>
      <path id="Caminho_1993" data-name="Caminho 1993" d="M595.054,395.547h-8.466V379.1h8.3c3.8,0,5.745,2.213,5.745,4.751a3.606,3.606,0,0,1-1.543,3.127V387a3.57,3.57,0,0,1,2.253,3.574C601.348,393.68,598.993,395.547,595.054,395.547Zm-.366-13.359h-4.974l.325.325v2.843l-.325.3h4.974c1.99,0,2.436-.832,2.436-1.766C597.125,382.858,596.536,382.188,594.689,382.188Zm.366,6.355h-5.34l.325.325v3.268l-.325.325h5.34c2.233,0,2.782-.792,2.782-1.929C597.836,389.416,597.186,388.543,595.054,388.543Z" transform="translate(-489.925 -378.919)" fill="#f8f0e5"/>
      <path id="Caminho_1994" data-name="Caminho 1994" d="M657.4,395.547h-13.6V379.1h13.6v3.086H646.922l.325.325v2.944l-.325.325h9.5v3.086h-9.5l.325.325v2.944l-.325.325H657.4Z" transform="translate(-529.631 -378.919)" fill="#f8f0e5"/>
    </g>
  </g>
</svg>
